<svg version="1.1"
    baseProfile="full"
    width="500"
    height="500"
    xmlns="http://www.w3.org/2000/svg">
  
  <line x1="0" y1="0" x2="400" y2="400" stroke="red" stroke-width="2"/>

  <rect width="100" height="100" x="30" y="30"
   fill="red" stroke="blue" stroke-width="3" rx="20"/>

  <circle cx="150" cy="150" r="30" fill="blue" stroke="red" stroke-width="3"/>

  <ellipse cx="100" cy="200" rx="25" ry="50" fill="pink" stroke="green" stroke-width="4"/>

  <text x="300" y="40" fill="red" font-size = "30px">hello world</text>

  <!-- 花 -->
  <pattern id="pattern" width="1" height="1" x="0" y="0">
    <rect width="50" height="50" fill="none" stroke="red"></rect>
    <ellipse cx="25" cy="15" rx="5" ry="10" fill="pink" stroke="red" stroke-width="1"></ellipse>
    <ellipse cx="15" cy="25" rx="10" ry="5" fill="pink" stroke="red" stroke-width="1"></ellipse>
    <ellipse cx="35" cy="25" rx="10" ry="5" fill="pink" stroke="red" stroke-width="1"></ellipse>
    <ellipse cx="25" cy="35" rx="5" ry="10" fill="pink" stroke="red" stroke-width="1"></ellipse>
    <circle cx="25" cy="25" r="10" fill="yellow" stroke="red" stroke-width="1"></circle>
  </pattern>

  <!-- 叶 -->
  <pattern id="pattern1" width="1" height="1" x="0" y="0">
    <path d="M30 0 C 20 35, 20 75, 30 100" stroke="green" fill="none"/>

    <path d="M30 100 C 45 85, 45 85, 50 60" stroke="green" fill="green"/>
    <path d="M50 60 C 35 75, 35 75, 30 100" stroke="green" fill="#0c0"/>

    <path d="M30 100 C 15 85, 15 85, 10 60" stroke="green" fill="#0c0"/>
    <path d="M10 60 C 25 75, 25 75, 30 100" stroke="green" fill="green"/>

    <rect width="150" height="100" fill="none" stroke="red"></rect>
  </pattern>

  <!-- 树 --> 
  <pattern id="tree" width="1" height="1" x="0" y="0">
    <rect width="100" height="180" fill="none" stroke="red"></rect>
    <path d="M40 120 L 60 120  C 63 150, 63 150, 70 180 L 30 180 C 37 150, 37 150, 40, 120 Z" stroke="brown" fill="#333" stroke-width="2"/>    
    <polygon points="50 0, 100 40, 0 40"
    style="fill: #3e5; stroke:green; stroke-width:1"/>
    <polygon points="50 40, 100 80, 0 80"
    style="fill: #3e5; stroke:green; stroke-width:1"/>
    <polygon points="50 80, 100 120, 0 120"
    style="fill: #3e5; stroke:green; stroke-width:1"/>
    <!-- <path d="M65 120" stroke="red" fill="none"/> -->
  </pattern>

  <!-- 花在叶后面 -->
  <rect fill="url(#pattern1)" width="50" height="100" x="150" y="325"/>
  <rect fill="url(#pattern)" width="50" height="50" x="150" y="300"/>

  <!-- 花在叶后面 -->
  <rect fill="url(#pattern1)" width="50" height="100" x="100" y="325"/>
  <rect fill="url(#pattern)" width="50" height="50" x="100" y="300" transform="rotate(45 125 325)"/>
  
  <rect width="100" height="180" x="250" y="250" fill="url(#tree)"></rect>
    <rect width="100" height="180" x="360" y="250" fill="url(#tree)"></rect>
</svg>