<?xml version="1.0" standalone="no"?>
<!DOCTYPE svg PUBLIC "-//W3C//DTD SVG 1.1//EN" "http://www.w3.org/Graphics/SVG/1.1/DTD/svg11.dtd" >
<!--
2013-9-30: Created.
-->
<svg>
<metadata>
Created by iconfont
</metadata>
<defs>

<font id="iconfont" horiz-adv-x="1024" >
  <font-face
    font-family="iconfont"
    font-weight="500"
    font-stretch="normal"
    units-per-em="1024"
    ascent="896"
    descent="-128"
  />
    <missing-glyph />
    
    <glyph glyph-name="x" unicode="x" horiz-adv-x="1001"
d="M281 543q-27 -1 -53 -1h-83q-18 0 -36.5 -6t-32.5 -18.5t-23 -32t-9 -45.5v-76h912v41q0 16 -0.5 30t-0.5 18q0 13 -5 29t-17 29.5t-31.5 22.5t-49.5 9h-133v-97h-438v97zM955 310v-52q0 -23 0.5 -52t0.5 -58t-10.5 -47.5t-26 -30t-33 -16t-31.5 -4.5q-14 -1 -29.5 -0.5
t-29.5 0.5h-32l-45 128h-439l-44 -128h-29h-34q-20 0 -45 1q-25 0 -41 9.5t-25.5 23t-13.5 29.5t-4 30v167h911zM163 247q-12 0 -21 -8.5t-9 -21.5t9 -21.5t21 -8.5q13 0 22 8.5t9 21.5t-9 21.5t-22 8.5zM316 123q-8 -26 -14 -48q-5 -19 -10.5 -37t-7.5 -25t-3 -15t1 -14.5
t9.5 -10.5t21.5 -4h37h67h81h80h64h36q23 0 34 12t2 38q-5 13 -9.5 30.5t-9.5 34.5q-5 19 -11 39h-368zM336 498v228q0 11 2.5 23t10 21.5t20.5 15.5t34 6h188q31 0 51.5 -14.5t20.5 -52.5v-227h-327z" />
    

    
    <glyph glyph-name="msnui-add-line" unicode="&#58961;" d="M895.80266667 482.10666667q19.456 0 37.376-7.68t30.72-20.48 20.48-30.72 7.68-37.376q0-20.48-7.68-37.888t-20.48-30.208-30.72-20.48-37.376-7.68h-287.744v-287.744q0-20.48-7.68-37.888t-20.48-30.208-30.72-20.48-37.376-7.68q-20.48 0-37.888 7.68t-30.208 20.48-20.48 30.208-7.68 37.888v287.744h-287.744q-20.48 0-37.888 7.68t-30.208 20.48-20.48 30.208-7.68 37.888q0 19.456 7.68 37.376t20.48 30.72 30.208 20.48 37.888 7.68h287.744v287.744q0 19.456 7.68 37.376t20.48 30.72 30.208 20.48 37.888 7.68q39.936 0 68.096-28.16t28.16-68.096v-287.744h287.744z"  horiz-adv-x="1024" />

    
    <glyph glyph-name="game" unicode="&#58919;" d="M715.21081913 741.60856861c-148.59548445-72.29573689-247.22059037-66.5336411-400.87959324 1.17477376-269.0685861 0-423.34233827-713.07949056-222.06716018-713.07949056 169.82873315 0 192.68384541 208.50428701 425.26808178 208.504287 188.09419435 0 298.48799346-205.92886557 423.95708643-205.92886556C1142.64681927 32.33050055000001 938.31653035 741.60856861 715.21081913 741.60856861L715.21081913 741.60856861zM316.07184611 386.27736121c-74.46016114 0-134.85214606 59.48499854-134.85214606 132.78435783 0 73.21320107 60.39198493 132.75408611 134.85214606 132.75408611 74.45899719 0 134.83118819-59.51992718 134.8311882-132.75408611C450.88789959 445.78215253 390.52967936 386.27736121 316.07184611 386.27736121L316.07184611 386.27736121zM653.69412608 505.3533093c-22.01216227 6.75174741-34.24424619 29.84321024-27.28758272 51.53868459 6.82393373 21.60582315 30.27516416 33.66559175 52.25472569 26.88007964 22.01798429-6.72031061 34.35136114-29.74773817 27.35744114-51.40362695C699.19826944 510.52161479 675.74703787 498.59690496 653.69412608 505.3533093L653.69412608 505.3533093zM865.34200889 470.67943822c-6.99624903-21.68965234-30.30892885-33.69935645-52.32109113-26.94411605-21.95394787 6.73661155-34.24657522 29.80944669-27.37257699 51.64114261 6.95549838 21.67568043 30.44165859 33.62949803 52.28732643 26.96390884C859.97344427 515.44774656 872.26840064 492.44127687 865.34200889 470.67943822L865.34200889 470.67943822zM811.60280633 567.02136093c-7.0253568-21.72574606-30.36947229-33.71565625-52.35601977-27.01513842-21.91669021 6.75756829-34.27917483 29.84321024-27.40750563 51.6248428 6.96132039 21.69081629 30.41022293 33.66559175 52.32109112 26.99534564C806.24821362 611.71748409 818.47447552 588.74710699 811.60280633 567.02136093L811.60280633 567.02136093zM755.54782094 439.35408014c-7.09521408-21.74670279-30.40556487-33.73661298-52.42587819-26.9848667-21.91552626 6.75640434-34.21048149 29.79780381-27.37374094 51.58874909 6.96132039 21.64540985 30.44282254 33.68654848 52.28965547 27.00000256C750.05118464 484.10143175 762.31819719 461.11475371 755.54782094 439.35408014L755.54782094 439.35408014zM384.21803577 517.0509812600001c0-37.8454107-31.03777792-68.47568441-69.4071205-68.47568441-38.44502301 0-69.48279979 30.63027371-69.48279978 68.47568441 0 37.72315989 31.03777792 68.38952733 69.48279978 68.38952733C353.18025785 585.44050859 384.21803577 554.77414115 384.21803577 517.0509812600001L384.21803577 517.0509812600001zM384.21803577 517.0509812600001"  horiz-adv-x="1024" />

    
    <glyph glyph-name="unie038" unicode="&#59033;" d="M420.9664 883.2q83.21706667 0 159.09546667-32.52906667t130.6624-87.27893333 87.27893333-130.6624 32.52906667-159.09546667q0-71.4752-23.27893334-136.87466667t-66.32106666-118.74986666l258.49173333-258.1504q13.14133333-13.14133333 13.14133333-32.3584 0-19.5584-12.97066666-32.52906667t-32.52906667-12.97066667q-19.21706667 0-32.3584 13.14133334l-258.1504 258.49173333q-53.3504-43.008-118.74986667-66.32106667t-136.87466666-23.27893333q-83.21706667 0-159.09546667 32.52906667t-130.6624 87.27893333-87.27893333 130.6624-32.52906667 159.09546667 32.52906667 159.09546666 87.27893333 130.6624 130.6624 87.27893334 159.09546667 32.52906666zM420.9664 792.1664q-64.7168 0-123.73333333-25.25866667t-101.6832-67.92533333-67.92533334-101.6832-25.25866666-123.73333334 25.25866666-123.73333333 67.92533334-101.6832 101.6832-67.92533333 123.73333333-25.25866667 123.73333333 25.25866667 101.6832 67.92533333 67.92533334 101.6832 25.25866666 123.73333333-25.25866666 123.73333334-67.92533334 101.6832-101.6832 67.92533333-123.73333333 25.25866667zM420.9664 655.6330666599999q18.8416 0 32.18773333-13.34613333t13.34613334-32.18773333l0-91.0336 91.0336 0q18.8416 0 32.18773333-13.34613334t13.34613333-32.18773333-13.34613333-32.18773333-32.18773333-13.34613334l-91.0336 0 0-91.0336q0-18.8416-13.34613334-32.18773333t-32.18773333-13.34613333-32.18773333 13.34613333-13.34613334 32.18773333l0 91.0336-91.0336 0q-18.8416 0-32.18773333 13.34613334t-13.34613333 32.18773333 13.34613333 32.18773333 32.18773333 13.34613334l91.0336 0 0 91.0336q0 18.8416 13.34613334 32.18773333t32.18773333 13.34613333z"  horiz-adv-x="1024" />

    
    <glyph glyph-name="unie123" unicode="&#59085;" d="M512 883.89404444q19.21706667 0 32.3584-13.14133333l227.56693333-227.56693334q13.14133333-13.14133333 13.14133334-32.3584 0-19.5584-12.97066667-32.52906666t-32.52906667-12.97066667q-19.21706667 0-32.3584 13.14133333l-149.67466666 150.05013334 0-527.29173334q0-18.8416-13.34613334-32.18773333t-32.18773333-13.34613333-32.18773333 13.34613333-13.34613334 32.18773333l0 527.29173334-149.67466666-150.05013334q-13.85813333-13.14133333-32.3584-13.14133333-18.8416 0-32.18773334 13.34613333t-13.34613333 32.18773334q0 18.50026667 13.14133333 32.3584l227.56693334 227.56693333q13.14133333 13.14133333 32.3584 13.14133333zM967.09973333 246.76124444000004q18.8416 0 32.18773334-13.34613333t13.34613333-32.18773334l0-182.03306666q0-56.90026667-39.45813333-96.3584-40.17493333-40.17493333-96.01706667-40.17493334l-729.25866667 0q-55.808 0-96.69973333 39.8336-39.8336 40.89173333-39.8336 96.69973334l0 182.03306666q0 18.8416 13.34613333 32.18773334t32.18773334 13.34613333 32.18773333-13.34613333 13.34613333-32.18773334l0-182.03306666q0-18.8416 13.34613334-32.18773334t32.18773333-13.34613333l729.25866667 0q18.50026667 0 31.47093333 13.34613333t12.97066667 32.18773334l0 182.03306666q0 18.8416 13.34613333 32.18773334t32.18773333 13.34613333z"  horiz-adv-x="1024" />

    
    <glyph glyph-name="tianjialianxiren" unicode="&#58899;" d="M841.30688455 44.415883949999966c-6.28835783 0-11.37632711 5.20556317-11.37632711 11.60685682l0 57.93997937-56.95032775 0c-6.28719275 0-11.39844893 5.18344135-11.39844892 11.58357106 0 6.40129365 5.11242013 11.58357106 11.39844892 11.58357106l56.95032775 0 0 57.96442908c0 6.40362269 5.08796928 11.58240711 11.37632711 11.58240711 6.30931456 0 11.39844893-5.17878443 11.39844892-11.58240711l0-57.96442908 56.95032776 0c6.28719275 0 11.39961287-5.18111346 11.39961287-11.58357106 0-6.40012971-5.11242013-11.58357106-11.39961287-11.58357106l-56.95032776 0 0-57.93997937C852.70533234 49.62144710999996 847.61619911 44.415883949999966 841.30688455 44.415883949999966L841.30688455 44.415883949999966 841.30688455 44.415883949999966zM841.30688455 310.97308615c-48.80724878 0-93.19366883-19.63117909-125.94063132-51.53752064-23.88085533 7.94398493-49.01682176 14.83428295-75.19483222 20.44851428 38.52768711 43.64127118 61.69483037 102.89341099 61.69483037 170.22925141l0 179.62744035c0 140.63519971-100.19923171 246.70830023-233.07440469 246.70830024-132.89962269 0-233.07440469-106.07310051-233.0744047-246.70830024l0-179.62744035c0-70.90440419 25.51552569-132.96598813 67.79690098-177.15797106C143.09544163 231.84759353000004 1.8140581 142.08160995000003 1.8140581 41.515624669999966c0-2.14230243-0.27710237-4.40103481-0.52975389-6.6795611-1.56597703-15.03919901-5.18111346-50.24864597 35.60297814-71.32005717 87.41643719-45.0686976 253.84659285-71.96507705 445.19266304-71.96507705 164.93636608 0 311.36975417 19.98628864 404.65191026 54.39702926 78.58875165 20.58706489 136.82446222 93.30078379 136.82446222 179.59833373C1023.55631673 227.79468344999998 941.80417536 310.97308615 841.30688455 310.97308615zM297.87216782 450.11333006l0 179.62744036c0 105.07762802 73.46236075 184.34400029 170.92084281 184.34400028 97.43403122 0 170.91851378-79.26637113 170.91851378-184.34400028l0-179.62744036c0-105.10324281-73.48448256-184.34400029-170.91851378-184.34400028C371.33452857 265.76932978 297.87216782 345.01008724999997 297.87216782 450.11333006zM482.07878144-46.06497792000005c-179.23274411 0-338.93793223 24.91707847-416.77571413 65.03402837-1.45071218 0.78357049-2.34838357 1.38085376-2.76403656 1.49611862-0.04657152 1.93389454 0.32250994 5.48266553 0.57632655 7.96959971 0.46106055 4.48952206 0.85109987 8.86610717 0.85109987 13.08085476 0 55.36106496 124.17090333 153.21075029 306.42150059 183.56042979 29.63713024-13.86209735 62.775296-21.66869561 98.40272498-21.6686956 38.27270656 0 73.69172651 9.02561565 104.94140643 24.94152817 36.81035264-4.96688242 71.43532317-12.71643022 103.3859072-22.39521564-11.55795741-24.33609501-18.04075235-51.61669291-18.04075235-80.40854528 0-63.21307079 31.2555008-119.12834162 78.85654016-152.61696C663.87879709-39.27131591 575.64153173-46.06497792000005 482.07878144-46.06497792000005zM841.31736235-7.384767150000016c-73.41578923 0-132.93105949 59.51527026-132.93105949 132.93105949s59.51527026 132.93105949 132.93105949 132.93105948 132.93105949-59.51527026 132.93105948-132.93105948S914.73315157-7.384767150000016 841.31736235-7.384767150000016z"  horiz-adv-x="1024" />

    
    <glyph glyph-name="caidan" unicode="&#59264;" d="M345.09262263 439.63115628l-222.55111785 0c-61.3512497 0-111.27555957 49.88324324-111.27555957 111.27555957l0 222.55111786c0 61.3512497 49.9256342 111.27555957 111.27555957 111.27555957l222.55111785 0c61.37112085 0 111.27555957-49.9256342 111.27555959-111.27555957l0-222.55111786C456.36818222 489.51439953 406.46374219 439.63115628 345.09262263 439.63115628L345.09262263 439.63115628zM400.73040178 773.45783371c0 30.67496205-24.9628171 55.63777914-55.63777915 55.63777914l-222.55111785 0c-30.65509218 0-55.63777914-24.9628171-55.63777915-55.63777914l0-222.55111786c0-30.69615751 24.98268826-55.63777914 55.63777915-55.63777914l222.55111785 0c30.67496205 0 55.63777914 24.94162162 55.63777915 55.63777914L400.73040178 773.45783371 400.73040178 773.45783371zM345.09262263-116.72544482l-222.55111785 0c-61.3512497 0-111.27555957 49.86337338-111.27555957 111.25436409l0 222.55111787c0 61.3512497 49.9256342 111.27555957 111.27555957 111.27555956l222.55111785 0c61.37112085 0 111.27555957-49.9256342 111.27555959-111.27555956l0-222.55111787C456.36818222-66.86339577000001 406.46374219-116.72544482 345.09262263-116.72544482L345.09262263-116.72544482zM400.73040178 217.08003713999994c0 30.67496205-24.9628171 55.63777914-55.63777915 55.63777914l-222.55111785 0c-30.65509218 0-55.63777914-24.9628171-55.63777915-55.63777914l0-222.55111787c0-30.69615751 24.98268826-55.63777914 55.63777915-55.63777913l222.55111785 0c30.67496205 0 55.63777914 24.94162162 55.63777915 55.63777913L400.73040178 217.08003713999994 400.73040178 217.08003713999994zM984.96815326 77.81999972000006c-15.37854766 0-27.8599562 12.39795227-27.8599562 27.77782423l0 111.48221319c0 30.67496205-24.9628171 55.63777914-55.63777914 55.63777914l-222.55111786 0c-30.65509218 0-55.63777914-24.9628171-55.63777913-55.63777914l0-222.55111787c0-30.69615751 24.98268826-55.63777914 55.63777913-55.63777913l111.4822132 0c15.3586765 0 27.81888957-12.50260402 27.81888957-27.85995621 0-15.31761116-12.46021308-27.75662876-27.81888957-27.75662875L678.91930006-116.72544482c-61.3512497 0-111.27555957 49.86337338-111.27555957 111.25436409l0 222.55111787c0 61.3512497 49.9256342 111.27555957 111.27555957 111.27555956l222.55111786 0c61.37112085 0 111.27555957-49.9256342 111.27555957-111.27555956l0-111.48221319C1012.74597749 90.21795196999994 1000.28443882 77.81999972000006 984.96815326 77.81999972000006L984.96815326 77.81999972000006zM901.47041792 439.63115628l-222.55111786 0c-61.3512497 0-111.27555957 49.88324324-111.27555957 111.27555957l0 222.55111786c0 61.3512497 49.9256342 111.27555957 111.27555957 111.27555957l222.55111786 0c61.37112085 0 111.27555957-49.9256342 111.27555957-111.27555957l0-222.55111786C1012.74597749 489.51439953 962.84153877 439.63115628 901.47041792 439.63115628L901.47041792 439.63115628zM957.10819836 773.45783371c0 30.67496205-24.9628171 55.63777914-55.63777915 55.63777914l-222.55111786 0c-30.65509218 0-55.63777914-24.9628171-55.63777913-55.63777914l0-222.55111786c0-30.69615751 24.98268826-55.63777914 55.63777913-55.63777914l222.55111786 0c30.67496205 0 55.63777914 24.94162162 55.63777915 55.63777914L957.10819836 773.45783371 957.10819836 773.45783371z"  horiz-adv-x="1024" />

    
    <glyph glyph-name="wxbgongju" unicode="&#58907;" d="M972.9500512 163.82707519999997L628.61051627 447.61307947c18.17282667 39.4848832 27.74333227 82.90908693 27.74333226 126.57342613 0 166.62044587-135.541408 302.2011488-302.2011488 302.2011488-29.91437867 0-59.42598293-4.26241173-87.73363413-12.8669152l-32.91061867-9.97218667 186.98614934-187.04618346c7.96159467-7.8808224 12.26330133-18.4162368 12.26330133-29.67424214s-4.30170667-21.79232853-12.26330133-29.75392426l-99.19248107-99.2328672c-15.80312213-15.7616448-43.60430507-15.84241707-59.4270752 0L74.86924267 694.8100191999999l-9.95144854-32.8091072c-8.60450453-28.38624107-12.96733653-57.9000288-12.96733653-87.81331627 0-166.5407648 135.580704-302.12255893 302.20224107-302.12255893 43.74511253 0 87.13002027 9.4875488 126.57342613 27.66365013L630.78156267 115.89923412999997c0.72368213-2.89363733 1.93200213-5.62791147 3.8596384-8.04018453 2.010592-2.57272853 4.58441173-4.5036384 7.39836693-5.79164053l121.26642347-148.52511787c15.1209184-17.6128736 36.8313824-27.8251968 59.50893973-27.8251968 20.82741973 0 40.57095253 8.364368 55.64711787 23.4001472l99.231776 99.2328672c15.9231904 15.9231904 24.20460267 36.75170133 23.32155733 58.62261973C1000.2098368 128.84583039999995 990.35989973 148.95065920000002 972.9500512 163.82707519999997M948.58390187 77.46112427000003l-99.2328672-99.2328672c-15.35996267-15.27918933-40.93224747-14.15382507-54.48136747 1.76936426l-57.29532373 70.1218528 68.99757973 55.64602667c8.88502613 7.15823147 10.21013973 20.18450987 3.134864 29.03024213-7.15823147 8.8457312-20.1037376 10.2123232-28.9494688 3.13595627l-69.23771627-55.88616213-30.1566976 36.98965333 62.00198614 50.02029867c8.8457312 7.156048 10.25380053 20.10155413 3.05627413 28.9483776-7.07636693 8.92541333-20.06444267 10.29418773-28.90908267 3.13595626l-62.199552-50.17966186L491.502768 351.59694079999997l-14.876416-7.8808224c-37.4742912-20.02296427-79.77203947-30.4776064-122.47256-30.4776064-143.9439808 0-261.02876587 117.005104-261.02876587 260.94908373 0 13.83073387 1.06533013 27.50101333 3.1959904 41.01083734l136.44519254-136.46484054c31.3017088-31.36065067 86.3255648-31.36065067 117.6480128 0l99.19248106 99.2328672c15.7201664 15.68196267 24.32685333 36.58906347 24.32685334 58.86384747 0 22.19401067-8.60668693 43.182976-24.32685334 58.78416533L313.18115627 832.0793152c13.50873387 2.09136533 27.22049067 3.13704747 40.9715424 3.13704747 143.9439808 0 261.02876587-117.00401173 261.02876586-261.0276736 0-42.62083947-10.533232-85.00045227-30.4776064-122.39178774l-7.8808224-14.8775072L946.4925376 132.30378667000002c8.24320853-7.07636693 13.02955307-16.64578133 13.3897568-26.939968C960.32436267 95.0718144 956.26388373 85.17821760000004 948.58390187 77.46112427000003"  horiz-adv-x="1024" />

    
    <glyph glyph-name="huojian" unicode="&#58906;" d="M275.2 32c0 0 128 102.4 236.8 108.8 108.8-6.4 236.8-108.8 236.8-108.8-6.4 108.8-83.2 179.2-83.2 179.2C761.6 576 505.6 896 505.6 896S256 576 358.4 211.2C358.4 211.2 275.2 134.4 275.2 32zM473.6 704l64 0c0 0 83.2 0 83.2-192L396.8 512C390.4 704 473.6 704 473.6 704zM576 102.4l-70.4 12.8-70.4-12.8c0 0-44.8-19.2-38.4-44.8 6.4-25.6 57.6-153.6 102.4-179.2 44.8 19.2 96 147.2 102.4 179.2C620.8 83.2 576 102.4 576 102.4z"  horiz-adv-x="1024" />

    
    <glyph glyph-name="shu" unicode="&#58917;" d="M864 755.2c-12.8 0-32-12.8-32-32L832 0c0-32-19.2-64-51.2-64l-108.8 0L262.4-64C224-64 192-32 192 0l0 64C192 96 224 128 256 128l499.2 0c12.8 0 12.8 6.4 12.8 19.2L768 768c0 64-32 128-102.4 128L262.4 896C198.4 896 128 838.4 128 768l0-697.6 0-64L128 0c0 0 0 0 0-6.4 0-6.4 0-6.4 0-12.8 6.4-57.6 64-102.4 115.2-108.8 0 0 6.4 0 6.4 0 0 0 0 0 6.4 0l6.4 0 409.6 0 108.8 0c64 0 115.2 57.6 115.2 128L896 723.2C896 742.4 876.8 755.2 864 755.2zM262.4 832l409.6 0C684.8 832 704 812.8 704 768l0-576L256 192c-25.6 0-64-19.2-64-32L192 768C192 800 230.4 832 262.4 832zM755.2 64 268.8 64c-12.8 0-25.6-12.8-25.6-32S256 0 268.8 0l480 0c12.8 0 25.6 12.8 25.6 32S768 64 755.2 64z"  horiz-adv-x="1024" />

    
    <glyph glyph-name="shezhi" unicode="&#59217;" d="M948.90666667 456.81777778l-80.82773334 0c-9.46631111 46.60337778-28.39893333 88.83768889-53.15697778 126.70293333l57.52604445 57.52604444c28.39893333 28.39893333 28.39893333 74.27413333 0 102.67306667-28.39893333 28.39893333-74.27413333 28.39893333-102.67306667 0l-57.52604444-57.52604444C673.65546667 712.40817778 631.42115555 731.3408 584.81777778 740.80711111L584.81777778 820.90666667c0 40.04977778-32.768 72.81777778-72.81777778 72.81777778C471.95022222 893.72444445 439.18222222 860.95644445 439.18222222 820.90666667l0-80.09955556C392.57884445 731.3408 350.34453333 712.40817778 311.75111111 686.92195555L254.22506667 744.448c-28.39893333 28.39893333-74.27413333 28.39893333-102.67306667 0-28.39893333-28.39893333-28.39893333-74.27413333 0-102.67306667l57.52604445-57.52604444C184.32 545.65546667 165.38737778 503.42115555 155.92106667 456.81777778L75.09333333 456.81777778C35.04355555 456.81777778 2.27555555 424.04977778 2.27555555 384c0-40.04977778 32.768-72.81777778 72.81777778-72.81777778l80.82773334 0c9.46631111-46.60337778 28.39893333-88.83768889 53.15697778-126.70293333l-57.52604445-57.52604444c-28.39893333-28.39893333-28.39893333-74.27413333 0-102.67306667 28.39893333-28.39893333 74.27413333-28.39893333 102.67306667 0l57.52604444 57.52604444C350.34453333 55.59182222000004 392.57884445 36.659200000000055 439.18222222 27.19288888999995L439.18222222-52.90666667000005c0-40.04977778 32.768-72.81777778 72.81777778-72.81777778 40.04977778 0 72.81777778 32.768 72.81777778 72.81777778l0 80.09955556c46.60337778 9.46631111 88.83768889 28.39893333 127.43111111 53.88515556l57.52604444-57.52604445c28.39893333-28.39893333 74.27413333-28.39893333 102.67306667 0 28.39893333 28.39893333 28.39893333 74.27413333 0 102.67306667l-57.52604445 57.52604444c24.75804445 37.86524445 43.69066667 80.82773333 53.15697778 126.70293334L948.90666667 310.45404444999997c40.04977778 0 72.81777778 32.768 72.81777778 72.81777777C1021.72444445 424.04977778 988.95644445 456.81777778 948.90666667 456.81777778zM512 238.36444444999995c-80.09955555 0-145.63555555 65.536-145.63555555 145.63555555 0 80.09955555 65.536 145.63555555 145.63555555 145.63555555 80.09955555 0 145.63555555-65.536 145.63555555-145.63555555C657.63555555 303.90044445 592.09955555 238.36444444999995 512 238.36444444999995z"  horiz-adv-x="1024" />

    
    <glyph glyph-name="tubiaoqiehuan" unicode="&#59043;" d="M71.92689778 25.973191110000016v700.16227556h-65.71690667v-765.87121778l1024.95232-0.01592889v65.71690667l-959.23541333 0.00568888zM710.15424 470.83633778h-135.22944v-377.88216889h135.22944v377.88216889zM899.72508445 660.40832h-135.22944v-567.45301333h135.22944v567.45301333zM520.58112 594.688h-135.22830222v-501.73496889h135.22944v501.73496889h-0.00113778zM328.47985778 350.76892445h-135.22488889v-257.81475556h135.22375111v257.81475556h0.00113778zM328.47985778 350.76892445z"  horiz-adv-x="1024" />

    
    <glyph glyph-name="emizhifeiji" unicode="&#58953;" d="M502.237757-128 644.426501 66.320699 502.237757 107.283556 502.237757-128 502.237757-128ZM0 329.286183 403.967637 206.911934 901.485385 629.33997 515.916344 174.31966 947.825442 40.900352 1170.285714 896 0 329.286183 0 329.286183Z"  horiz-adv-x="1171" />

    
    <glyph glyph-name="remove-1-copy" unicode="&#58908;" d="M585.28 128.002v402.276c0 46.88 73.238 46.88 73.238 0v-402.276c0-46.885-73.238-46.885-73.238 0v0 0zM365.5 128.002v402.276c0 46.88 73.272 46.88 73.272 0v-402.276c-0.001-46.885-73.272-46.885-73.272 0v0 0zM988.19 713.138h-183.13v73.168c0 60.577-49.248 109.692-108.755 109.692h-367.426c-60.674 0-109.888-49.117-109.888-109.692v-73.168h-183.131c-46.949 0-46.949-73.105 0-73.105h952.33c46.914 0 46.914 73.105 0 73.105v0 0zM292.262 786.308c0 19.428 17.159 36.587 36.616 36.587h367.426c19.459 0 35.484-14.864 35.484-36.587v-73.168l-439.526 0v73.168zM768.411-128h-512.803c-60.64 0-109.854 49.112-109.854 109.687l-0 548.59c0 21.724 17.159 36.586 36.616 36.586 19.462 0 36.621-14.862 36.621-36.586v-548.589c0-19.39 17.193-36.547 36.616-36.547h512.803c19.457 0 36.65 17.158 36.65 36.547l0 547.457c0 48.013 73.238 48.013 73.238 0v-547.457c0.001-60.577-49.213-109.688-109.887-109.688v0zM768.411-128z"  horiz-adv-x="1024" />

    
    <glyph glyph-name="gupiao" unicode="&#58903;" d="M971.98262045-110.28100741000003l-911.62275082-0.0206317c-21.81499259 0.0206317-41.80347259 20.06979318-41.85323141 41.85444503l0 258.42665245c0 41.97823525 21.08074667 63.94493155 43.2124966 42.89938015l123.28656593-97.03575704c16.56361718-14.18368948 41.45637452-33.4767597 55.31117036-16.65585303l141.30168414 171.56717985c13.85722311 16.81969303 38.85192533 40.56799763 55.54782816 26.52751645l121.5899117-105.86248534c16.68862103-14.02106311 51.24551111-38.50361363 64.82602667-21.43998104l302.53966222 364.60710874c40.86412325 46.64828208 86.43834311 35.70377008 86.43834311-21.44847644 0-42.58990459 0-601.58407111 0-601.58407112-0.00121363-21.78465185-18.77363675-41.85444503-40.57892029-41.83381333zM617.18649363 337.51313067c-11.19937422-14.34631585-27.7338643-23.50072415-45.81937304-25.40248178-18.11827675-2.14691082-36.17465837 3.65666608-50.08164029 15.34756029l-137.15228445 115.50962727-137.75424474-181.82720475c-11.00640711-14.48952415-27.39647525-23.93034903-45.46256593-26.07968711-2.62508089-0.30462103-5.2635117-0.46846103-7.89951526-0.46846104-15.35726933 0-30.35894518 5.31569778-42.37630577 15.16551586l-120.21972385 98.36346784c-28.62224118 23.40120652-32.84203141 65.601536-9.43232948 94.22499083 23.39149748 28.66229097 65.58211792 32.85174045 94.19465007 9.43232947l66.45957214-54.36332563 138.3380006 182.62455941c11.09500208 14.65457778 27.69138725 24.07598459 45.92253155 26.11852326 18.3622163 2.00248889 36.52175645-3.53530311 50.56223764-15.30629689l137.89866666-116.15527822 178.16932504 223.47897363-49.65201541 41.24277571c-35.23166815 29.25575585-27.4061843 60.95333452 17.39252622 70.42450015l258.22033542 54.61818785c44.79021511 9.47237925 58.64501097-12.50645333 30.7897837-48.86436979l-372.09520356-478.07905185z"  horiz-adv-x="1024" />

    
    <glyph glyph-name="youfanye" unicode="&#58944;" d="M113.777778-128 113.777778 896 910.222222 384 113.777778-128Z"  horiz-adv-x="1024" />

    
    <glyph glyph-name="zuofanye" unicode="&#58947;" d="M910.222222-128 910.222222 896 113.777778 384 910.222222-128Z"  horiz-adv-x="1024" />

    
    <glyph glyph-name="fangdajing" unicode="&#59108;" d="M1000.81765136-38.537291849999974l-248.55134816 248.55134815C810.26161778 276.29441581000003 843.40179753 367.42991013000005 843.40179753 466.85044939c0 231.98125827-182.27098864 414.25224691-414.25224692 414.25224691S14.8973037 698.83170765 14.8973037 466.85044939s182.27098864-414.25224691 414.25224691-414.25224692c99.42053925 0 190.55603358 33.14017975 256.83639309 91.13549433l248.55134815-248.55134816c16.57008987-16.57008987 41.42522469-16.57008987 57.99531457 0C1009.1026963-88.24756147999994 1009.1026963-55.10738173000004 1000.81765136-38.537291849999974zM97.74775309 466.85044939c0 182.27098864 149.13080889 331.40179753 331.40179752 331.40179752s331.40179753-149.13080889 331.40179754-331.40179752c0-182.27098864-149.13080889-331.40179753-331.40179754-331.40179754S97.74775309 284.57946074999995 97.74775309 466.85044939z"  horiz-adv-x="1024" />

    
    <glyph glyph-name="xiala" unicode="&#58951;" d="M508.46520661 98.49553464999997a74.0004955 74.0004955 0 0 0-52.81639424 22.1705546L39.96529323 544.42209053c-28.60716715 29.16615851-28.16326315 76.02272597 1.00289536 104.62989425 29.18259939 28.63182848 76.01450553 28.1550427 104.62989312-1.00289536l362.87534535-369.92027079 362.87534421 369.92027079a73.98405461 73.98405461 0 0 0 105.63278848-103.62699889L561.28160085 120.66608925000003a73.98405461 73.98405461 0 0 0-52.81639424-22.1705546z"  horiz-adv-x="1024" />

    
    <glyph glyph-name="shexiangji" unicode="&#58894;" d="M976.92910512 479.55418495l-196.63173321-131.0417941c0 39.7682157-18.08901478 74.97965669-46.12008348 99.00628702 66.55652767 40.18246795 111.57193851 112.53852708 111.5719385 195.94131279 0 126.76118755-102.73455724 229.3576607-229.35766071 229.3576607s-229.3576607-102.73455724-229.35766071-229.3576607c0-64.34718237 26.65022788-122.20441283 69.18012524-163.90580571h-120.27123569c31.34508668 34.79718875 51.09111045 80.50301999 51.09111045 131.04179411 0 108.53408869-88.09764451 196.63173319-196.63173321 196.63173321-108.67217277 0-196.63173319-88.09764451-196.63173319-196.63173321 0-59.23807131 26.78831197-111.71002258 68.21353666-147.88805215-40.45863612-22.36962133-68.21353665-64.89951868-68.21353666-114.33362015v-262.22167229c0-72.35605913 58.68573497-131.0417941 131.04179411-131.04179412h524.44334458c72.35605913 0 131.0417941 58.68573497 131.04179411 131.04179412l196.63173321-131.04179412c36.17802957 0 65.58993909 29.41190953 65.58993909 65.58993912V413.96424587c0 36.17802957-29.41190953 65.58993909-65.58993909 65.58993908z m-786.52693282 0c-72.35605913 0-131.0417941 58.68573497-131.04179409 131.04179411 0 72.35605913 58.68573497 131.0417941 131.04179409 131.04179411 72.35605913 0 131.0417941-58.68573497 131.04179412-131.04179411 0-72.35605913-58.68573497-131.0417941-131.04179412-131.04179411z m425.98939392-0.41425225c-90.72124208 0-164.18197387 73.59881586-164.18197387 164.18197387 0 90.72124208 73.59881586 164.18197387 164.18197387 164.18197386s164.18197387-73.59881586 164.18197387-164.18197386c0.13808409-90.58315798-73.46073179-164.18197387-164.18197387-164.18197387z"  horiz-adv-x="1024" />

    


  </font>
</defs>
</svg>
